<mxfile host="app.diagrams.net" modified="2020-11-03T06:24:57.747Z" agent="5.0 (Windows NT 10.0; Win64; x64) AppleWebKit/537.36 (KHTML, like Gecko) Chrome/86.0.4240.111 Safari/537.36 OPR/72.0.3815.186" etag="gSef_2RrekauVea08cUZ" version="13.8.8" type="github">
  <diagram id="uTxvFxXioQ26-19pOSVQ" name="Page-1">
    <mxGraphModel dx="1256" dy="544" grid="1" gridSize="10" guides="1" tooltips="1" connect="1" arrows="1" fold="1" page="1" pageScale="1" pageWidth="827" pageHeight="1169" math="0" shadow="0">
      <root>
        <mxCell id="0" />
        <mxCell id="1" parent="0" />
        <mxCell id="ejsThDJycFvpP-FB46fx-28" value="Inicio" style="ellipse;whiteSpace=wrap;html=1;aspect=fixed;" vertex="1" parent="1">
          <mxGeometry x="145" width="80" height="80" as="geometry" />
        </mxCell>
        <mxCell id="ejsThDJycFvpP-FB46fx-29" value="" style="endArrow=classic;html=1;exitX=0.5;exitY=1;exitDx=0;exitDy=0;entryX=0.5;entryY=0;entryDx=0;entryDy=0;" edge="1" parent="1" source="ejsThDJycFvpP-FB46fx-28" target="ejsThDJycFvpP-FB46fx-30">
          <mxGeometry width="50" height="50" relative="1" as="geometry">
            <mxPoint x="365" y="230" as="sourcePoint" />
            <mxPoint x="185" y="110" as="targetPoint" />
          </mxGeometry>
        </mxCell>
        <mxCell id="ejsThDJycFvpP-FB46fx-30" value="nuM=0&lt;br&gt;prM=0&lt;br&gt;prom=0.0&lt;br&gt;tpCol=0.0" style="rounded=0;whiteSpace=wrap;html=1;" vertex="1" parent="1">
          <mxGeometry x="125" y="110" width="120" height="60" as="geometry" />
        </mxCell>
        <mxCell id="ejsThDJycFvpP-FB46fx-31" value="" style="endArrow=classic;html=1;exitX=0.5;exitY=1;exitDx=0;exitDy=0;" edge="1" parent="1" source="ejsThDJycFvpP-FB46fx-30" target="ejsThDJycFvpP-FB46fx-33">
          <mxGeometry width="50" height="50" relative="1" as="geometry">
            <mxPoint x="365" y="210" as="sourcePoint" />
            <mxPoint x="415" y="160" as="targetPoint" />
          </mxGeometry>
        </mxCell>
        <mxCell id="ejsThDJycFvpP-FB46fx-32" style="edgeStyle=orthogonalEdgeStyle;rounded=0;orthogonalLoop=1;jettySize=auto;html=1;entryX=0.5;entryY=0;entryDx=0;entryDy=0;" edge="1" parent="1" source="ejsThDJycFvpP-FB46fx-33" target="ejsThDJycFvpP-FB46fx-35">
          <mxGeometry relative="1" as="geometry">
            <mxPoint x="185" y="310" as="targetPoint" />
          </mxGeometry>
        </mxCell>
        <mxCell id="ejsThDJycFvpP-FB46fx-33" value="&quot;Programa que calcula el total a pagar por una colegiatura&quot;" style="ellipse;whiteSpace=wrap;html=1;" vertex="1" parent="1">
          <mxGeometry x="105" y="200" width="160" height="80" as="geometry" />
        </mxCell>
        <mxCell id="ejsThDJycFvpP-FB46fx-34" style="edgeStyle=orthogonalEdgeStyle;rounded=0;orthogonalLoop=1;jettySize=auto;html=1;" edge="1" parent="1" source="ejsThDJycFvpP-FB46fx-35" target="ejsThDJycFvpP-FB46fx-37">
          <mxGeometry relative="1" as="geometry" />
        </mxCell>
        <mxCell id="ejsThDJycFvpP-FB46fx-35" value="&quot;Ingresa la cantidad de materias que se tiene: &quot;" style="ellipse;whiteSpace=wrap;html=1;" vertex="1" parent="1">
          <mxGeometry x="90" y="310" width="190" height="80" as="geometry" />
        </mxCell>
        <mxCell id="ejsThDJycFvpP-FB46fx-36" style="edgeStyle=orthogonalEdgeStyle;rounded=0;orthogonalLoop=1;jettySize=auto;html=1;entryX=0.5;entryY=0;entryDx=0;entryDy=0;" edge="1" parent="1" source="ejsThDJycFvpP-FB46fx-37" target="ejsThDJycFvpP-FB46fx-39">
          <mxGeometry relative="1" as="geometry" />
        </mxCell>
        <mxCell id="ejsThDJycFvpP-FB46fx-37" value="nuM" style="shape=parallelogram;perimeter=parallelogramPerimeter;whiteSpace=wrap;html=1;fixedSize=1;" vertex="1" parent="1">
          <mxGeometry x="125" y="420" width="120" height="30" as="geometry" />
        </mxCell>
        <mxCell id="ejsThDJycFvpP-FB46fx-38" style="edgeStyle=orthogonalEdgeStyle;rounded=0;orthogonalLoop=1;jettySize=auto;html=1;" edge="1" parent="1" source="ejsThDJycFvpP-FB46fx-39" target="ejsThDJycFvpP-FB46fx-41">
          <mxGeometry relative="1" as="geometry" />
        </mxCell>
        <mxCell id="ejsThDJycFvpP-FB46fx-39" value="&quot;Ingresa el precio de las materias: &quot;" style="ellipse;whiteSpace=wrap;html=1;" vertex="1" parent="1">
          <mxGeometry x="90" y="480" width="190" height="80" as="geometry" />
        </mxCell>
        <mxCell id="ejsThDJycFvpP-FB46fx-57" style="edgeStyle=orthogonalEdgeStyle;rounded=0;orthogonalLoop=1;jettySize=auto;html=1;exitX=0.5;exitY=1;exitDx=0;exitDy=0;entryX=0.5;entryY=0;entryDx=0;entryDy=0;" edge="1" parent="1" source="ejsThDJycFvpP-FB46fx-41" target="ejsThDJycFvpP-FB46fx-54">
          <mxGeometry relative="1" as="geometry" />
        </mxCell>
        <mxCell id="ejsThDJycFvpP-FB46fx-41" value="prM" style="shape=parallelogram;perimeter=parallelogramPerimeter;whiteSpace=wrap;html=1;fixedSize=1;" vertex="1" parent="1">
          <mxGeometry x="125" y="590" width="120" height="30" as="geometry" />
        </mxCell>
        <mxCell id="ejsThDJycFvpP-FB46fx-43" style="edgeStyle=orthogonalEdgeStyle;rounded=0;orthogonalLoop=1;jettySize=auto;html=1;exitX=0.5;exitY=1;exitDx=0;exitDy=0;entryX=0.5;entryY=0;entryDx=0;entryDy=0;" edge="1" parent="1" source="ejsThDJycFvpP-FB46fx-44" target="ejsThDJycFvpP-FB46fx-51">
          <mxGeometry relative="1" as="geometry" />
        </mxCell>
        <mxCell id="ejsThDJycFvpP-FB46fx-64" style="edgeStyle=orthogonalEdgeStyle;rounded=0;orthogonalLoop=1;jettySize=auto;html=1;entryX=0.5;entryY=0;entryDx=0;entryDy=0;" edge="1" parent="1" source="ejsThDJycFvpP-FB46fx-44" target="ejsThDJycFvpP-FB46fx-62">
          <mxGeometry relative="1" as="geometry">
            <Array as="points">
              <mxPoint x="580" y="140" />
            </Array>
          </mxGeometry>
        </mxCell>
        <mxCell id="ejsThDJycFvpP-FB46fx-44" value="prom&amp;gt;9.1" style="rhombus;whiteSpace=wrap;html=1;" vertex="1" parent="1">
          <mxGeometry x="460" y="100" width="80" height="80" as="geometry" />
        </mxCell>
        <mxCell id="ejsThDJycFvpP-FB46fx-48" value="Si" style="text;html=1;align=center;verticalAlign=middle;resizable=0;points=[];autosize=1;" vertex="1" parent="1">
          <mxGeometry x="455" y="180" width="30" height="20" as="geometry" />
        </mxCell>
        <mxCell id="ejsThDJycFvpP-FB46fx-49" value="No" style="text;html=1;align=center;verticalAlign=middle;resizable=0;points=[];autosize=1;" vertex="1" parent="1">
          <mxGeometry x="540" y="120" width="30" height="20" as="geometry" />
        </mxCell>
        <mxCell id="ejsThDJycFvpP-FB46fx-63" style="edgeStyle=orthogonalEdgeStyle;rounded=0;orthogonalLoop=1;jettySize=auto;html=1;entryX=0.5;entryY=0;entryDx=0;entryDy=0;" edge="1" parent="1" source="ejsThDJycFvpP-FB46fx-51" target="ejsThDJycFvpP-FB46fx-62">
          <mxGeometry relative="1" as="geometry" />
        </mxCell>
        <mxCell id="ejsThDJycFvpP-FB46fx-51" value="tpCol=tpCol-(tpCol*(15.0/100))" style="whiteSpace=wrap;html=1;" vertex="1" parent="1">
          <mxGeometry x="380" y="210" width="120" height="60" as="geometry" />
        </mxCell>
        <mxCell id="ejsThDJycFvpP-FB46fx-52" value="Fin" style="ellipse;whiteSpace=wrap;html=1;aspect=fixed;" vertex="1" parent="1">
          <mxGeometry x="540" y="450" width="80" height="80" as="geometry" />
        </mxCell>
        <mxCell id="ejsThDJycFvpP-FB46fx-58" style="edgeStyle=orthogonalEdgeStyle;rounded=0;orthogonalLoop=1;jettySize=auto;html=1;exitX=0.5;exitY=1;exitDx=0;exitDy=0;entryX=0.5;entryY=0;entryDx=0;entryDy=0;" edge="1" parent="1" source="ejsThDJycFvpP-FB46fx-54" target="ejsThDJycFvpP-FB46fx-56">
          <mxGeometry relative="1" as="geometry" />
        </mxCell>
        <mxCell id="ejsThDJycFvpP-FB46fx-54" value="&quot;Ingresa tu promedio general: &quot;" style="ellipse;whiteSpace=wrap;html=1;" vertex="1" parent="1">
          <mxGeometry x="104" y="640" width="170" height="80" as="geometry" />
        </mxCell>
        <mxCell id="ejsThDJycFvpP-FB46fx-60" style="edgeStyle=orthogonalEdgeStyle;rounded=0;orthogonalLoop=1;jettySize=auto;html=1;exitX=0.5;exitY=1;exitDx=0;exitDy=0;entryX=0.5;entryY=0;entryDx=0;entryDy=0;" edge="1" parent="1" source="ejsThDJycFvpP-FB46fx-56" target="ejsThDJycFvpP-FB46fx-59">
          <mxGeometry relative="1" as="geometry" />
        </mxCell>
        <mxCell id="ejsThDJycFvpP-FB46fx-56" value="prom" style="shape=parallelogram;perimeter=parallelogramPerimeter;whiteSpace=wrap;html=1;fixedSize=1;" vertex="1" parent="1">
          <mxGeometry x="125" y="740" width="120" height="30" as="geometry" />
        </mxCell>
        <mxCell id="ejsThDJycFvpP-FB46fx-61" style="edgeStyle=orthogonalEdgeStyle;rounded=0;orthogonalLoop=1;jettySize=auto;html=1;exitX=0.5;exitY=1;exitDx=0;exitDy=0;entryX=0.5;entryY=0;entryDx=0;entryDy=0;" edge="1" parent="1" source="ejsThDJycFvpP-FB46fx-59" target="ejsThDJycFvpP-FB46fx-44">
          <mxGeometry relative="1" as="geometry">
            <Array as="points">
              <mxPoint x="182" y="840" />
              <mxPoint x="330" y="840" />
              <mxPoint x="330" y="80" />
              <mxPoint x="500" y="80" />
            </Array>
          </mxGeometry>
        </mxCell>
        <mxCell id="ejsThDJycFvpP-FB46fx-59" value="tpCol=nuM*prM" style="rounded=0;whiteSpace=wrap;html=1;" vertex="1" parent="1">
          <mxGeometry x="100" y="790" width="165" height="30" as="geometry" />
        </mxCell>
        <mxCell id="ejsThDJycFvpP-FB46fx-65" style="edgeStyle=orthogonalEdgeStyle;rounded=0;orthogonalLoop=1;jettySize=auto;html=1;" edge="1" parent="1" source="ejsThDJycFvpP-FB46fx-62" target="ejsThDJycFvpP-FB46fx-52">
          <mxGeometry relative="1" as="geometry" />
        </mxCell>
        <mxCell id="ejsThDJycFvpP-FB46fx-62" value="&quot;Aqui esta el total a pagar: &quot;+ tpCol" style="ellipse;whiteSpace=wrap;html=1;" vertex="1" parent="1">
          <mxGeometry x="470" y="340" width="220" height="80" as="geometry" />
        </mxCell>
      </root>
    </mxGraphModel>
  </diagram>
</mxfile>
